<?xml version="1.0" standalone="no"?>
<!DOCTYPE svg PUBLIC "-//W3C//DTD SVG 20010904//EN"
 "http://www.w3.org/TR/2001/REC-SVG-20010904/DTD/svg10.dtd">
<svg version="1.0" xmlns="http://www.w3.org/2000/svg"
 width="242.000000pt" height="242.000000pt" viewBox="0 0 242.000000 242.000000"
 preserveAspectRatio="xMidYMid meet">

<g transform="translate(0.000000,242.000000) scale(0.100000,-0.100000)"
fill="#FFFFFF" stroke="none">
<path d="M1161 2104 c-12 -15 -21 -33 -21 -40 0 -26 23 -62 47 -73 34 -16 47
-14 77 10 33 26 36 79 6 109 -30 30 -83 27 -109 -6z"/>
<path d="M575 1831 c-53 -32 -68 -58 -73 -119 -3 -47 0 -63 20 -92 62 -92 182
-91 252 2 27 38 27 118 0 156 -52 69 -137 92 -199 53z"/>
<path d="M1608 1834 c-78 -42 -76 -178 2 -219 69 -36 154 -2 179 72 13 35 13
46 0 79 -27 72 -114 105 -181 68z"/>
<path d="M1181 1480 c-18 -5 -49 -24 -69 -43 -65 -66 -52 -180 26 -229 102
-63 227 6 227 127 0 60 -22 99 -71 126 -39 23 -73 28 -113 19z"/>
<path d="M1704 1361 c-143 -87 -106 -296 57 -326 120 -22 231 96 200 213 -13
48 -51 96 -92 117 -40 21 -127 19 -165 -4z"/>
<path d="M2267 1089 c-11 -6 -25 -26 -33 -45 -40 -96 91 -167 150 -82 51 72
-40 171 -117 127z"/>
<path d="M722 991 c-115 -73 -86 -252 45 -277 77 -15 164 45 179 121 9 49 -19
119 -58 147 -44 31 -123 35 -166 9z"/>
<path d="M1395 745 c-56 -55 -16 -145 63 -145 52 0 86 36 85 87 -2 75 -96 111
-148 58z"/>
<path d="M85 718 c-16 -6 -42 -22 -58 -36 -26 -25 -27 -29 -27 -132 0 -115 5
-127 68 -159 65 -34 182 0 222 64 88 143 -48 318 -205 263z"/>
<path d="M2014 581 c-84 -39 -113 -117 -72 -199 28 -56 71 -84 132 -84 87 0
146 60 146 148 0 112 -106 181 -206 135z"/>
<path d="M1030 401 c-77 -25 -125 -71 -149 -140 -22 -68 -7 -142 41 -197 45
-51 77 -64 158 -64 81 0 113 13 158 64 66 75 68 179 5 264 -43 57 -149 94
-213 73z"/>
</g>
</svg>
